<svg xmlns="http://www.w3.org/2000/svg" viewBox="0 0 1280 520" width="1280" height="520">
  <defs>
    <marker id="arrowFlow" markerWidth="10" markerHeight="7" refX="9" refY="3.5" orient="auto">
      <polygon points="0 0, 10 3.5, 0 7" fill="#6fd1b4"/>
    </marker>
    <marker id="arrowWarn" markerWidth="10" markerHeight="7" refX="9" refY="3.5" orient="auto">
      <polygon points="0 0, 10 3.5, 0 7" fill="#e6a562"/>
    </marker>
    <filter id="editorialGrain" x="0" y="0" width="100%" height="100%">
      <feTurbulence type="fractalNoise" baseFrequency="0.9" numOctaves="2" stitchTiles="stitch"/>
      <feColorMatrix values="0 0 0 0 1  0 0 0 0 1  0 0 0 0 1  0 0 0 0.08 0"/>
    </filter>
    <radialGradient id="editorialTopGlow" cx="50%" cy="0%" r="80%">
      <stop offset="0%" stop-color="#e6a562" stop-opacity="0.12"/>
      <stop offset="100%" stop-color="#e6a562" stop-opacity="0"/>
    </radialGradient>
    <style>
    text { font-family: 'Inter', 'Noto Sans', 'Helvetica Neue', 'DejaVu Sans', sans-serif; }
    .title { font-size: 44px; font-weight: 700; fill: #f5efe0; font-family: 'Playfair Display', 'Noto Serif Display', 'DejaVu Serif', Georgia, serif; }
    .subtitle { font-size: 12px; font-weight: 500; fill: #e6a562; letter-spacing: 0.3em; text-transform: uppercase; }
    .node-title { font-size: 18px; font-weight: 700; fill: #f5efe0; }
    .node-sub { font-size: 11px; font-weight: 500; fill: #d4cfbf; }
    .node-type { font-size: 10px; font-weight: 700; fill: #b5b3a8; letter-spacing: 0.08em; }
    .edge-label { font-size: 11px; font-weight: 600; fill: #d4cfbf; }
    .legend { font-size: 12px; font-weight: 500; fill: #d4cfbf; }
    </style>
  </defs>
  <rect width="1280" height="520" fill="#15151e"/>
  <rect width="1280" height="260" fill="url(#editorialTopGlow)"/>
  <rect width="1280" height="520" filter="url(#editorialGrain)" opacity="0.6"/>

  <text x="640" y="60" text-anchor="middle" class="title">State &amp; Render Flow</text>
  <text x="640" y="88" text-anchor="middle" class="subtitle">How the heatmap stays in sync</text>

  <!-- Column 1: Controls -->
  <rect x="60" y="210" width="200" height="110" rx="8" fill="#24222f" stroke="#e6a562" stroke-width="2.0"/>
  <rect x="66" y="216" width="188" height="98" rx="5" fill="none" stroke="#e6a562" stroke-width="1.2" opacity="0.55"/>
  <text x="160" y="230" text-anchor="middle" class="node-type">INPUT</text>
  <text x="160" y="264" text-anchor="middle" class="node-title">Controls Panel</text>
  <text x="160" y="288" text-anchor="middle" class="node-sub">price · tax · rate</text>
  <text x="160" y="304" text-anchor="middle" class="node-sub">down · term · rent</text>

  <!-- Column 2: App State (center, amber — orchestrator) -->
  <rect x="380" y="210" width="220" height="110" rx="8" fill="#24222f" stroke="#e6a562" stroke-width="2.0"/>
  <rect x="386" y="216" width="208" height="98" rx="5" fill="none" stroke="#e6a562" stroke-width="1.2" opacity="0.55"/>
  <text x="490" y="230" text-anchor="middle" class="node-type">STATE</text>
  <text x="490" y="264" text-anchor="middle" class="node-title">App State</text>
  <text x="490" y="288" text-anchor="middle" class="node-sub">React + useReducer</text>
  <text x="490" y="304" text-anchor="middle" class="node-sub">params · mode · pinned</text>

  <!-- Column 3: 3 stacked targets -->
  <!-- Heatmap -->
  <rect x="720" y="110" width="200" height="90" rx="8" fill="#24222f" stroke="#6fd1b4" stroke-width="1.8"/>
  <text x="820" y="128" text-anchor="middle" class="node-type">VIEW</text>
  <text x="820" y="156" text-anchor="middle" class="node-title">D3 Heatmap</text>
  <text x="820" y="178" text-anchor="middle" class="node-sub">scaleBand grid · rent line</text>

  <!-- Amort -->
  <rect x="720" y="220" width="200" height="90" rx="8" fill="#24222f" stroke="rgba(245,239,224,0.22)" stroke-width="1.6"/>
  <text x="820" y="238" text-anchor="middle" class="node-type">VIEW</text>
  <text x="820" y="266" text-anchor="middle" class="node-title">Amortization Chart</text>
  <text x="820" y="288" text-anchor="middle" class="node-sub">per-cell drill-down</text>

  <!-- URL state -->
  <rect x="720" y="330" width="200" height="90" rx="8" fill="#24222f" stroke="rgba(245,239,224,0.22)" stroke-width="1.6"/>
  <text x="820" y="348" text-anchor="middle" class="node-type">SHAREABLE</text>
  <text x="820" y="376" text-anchor="middle" class="node-title">URL State</text>
  <text x="820" y="398" text-anchor="middle" class="node-sub">encode / popstate</text>

  <!-- Forward arrows: Controls → App -->
  <path d="M 260,265 L 380,265" fill="none" stroke="#6fd1b4" stroke-width="1.8" marker-end="url(#arrowFlow)"/>
  <text x="320" y="258" text-anchor="middle" class="edge-label">params</text>

  <!-- App → Heatmap -->
  <path d="M 600,245 C 660,245 680,170 720,155" fill="none" stroke="#6fd1b4" stroke-width="1.8" marker-end="url(#arrowFlow)"/>
  <text x="650" y="200" class="edge-label">params + mode</text>

  <!-- App → Amort (straight) -->
  <path d="M 600,265 L 720,265" fill="none" stroke="#6fd1b4" stroke-width="1.8" marker-end="url(#arrowFlow)"/>
  <text x="650" y="257" class="edge-label">params + cell</text>

  <!-- App → URL -->
  <path d="M 600,285 C 660,285 680,360 720,375" fill="none" stroke="#6fd1b4" stroke-width="1.8" marker-end="url(#arrowFlow)"/>
  <text x="655" y="340" class="edge-label">all state</text>

  <!-- Feedback loops curve BACK under the flow so they don't overlap forward arrows -->
  <!-- Heatmap → App (click) -->
  <path d="M 720,135 C 630,80 430,80 380,235" fill="none" stroke="#e6a562" stroke-width="1.6" stroke-dasharray="6,5" marker-end="url(#arrowWarn)"/>
  <text x="540" y="78" text-anchor="middle" class="edge-label" fill="#e6a562">click → pin cell</text>

  <!-- URL → App (popstate) -->
  <path d="M 720,400 C 630,470 430,470 380,300" fill="none" stroke="#e6a562" stroke-width="1.6" stroke-dasharray="6,5" marker-end="url(#arrowWarn)"/>
  <text x="540" y="475" text-anchor="middle" class="edge-label" fill="#e6a562">popstate → rehydrate</text>

  <!-- Legend (right side, out of way) -->
  <rect x="990" y="130" width="18" height="10" rx="2" fill="#24222f" stroke="#e6a562" stroke-width="1.5"/>
  <text x="1018" y="140" class="legend">Amber — orchestrator &amp; feedback</text>

  <rect x="990" y="158" width="18" height="10" rx="2" fill="#24222f" stroke="#6fd1b4" stroke-width="1.5"/>
  <text x="1018" y="168" class="legend">Teal — rendered view</text>

  <line x1="993" y1="191" x2="1025" y2="191" stroke="#6fd1b4" stroke-width="1.8" marker-end="url(#arrowFlow)"/>
  <text x="1035" y="196" class="legend">Forward flow</text>

  <line x1="993" y1="218" x2="1025" y2="218" stroke="#e6a562" stroke-width="1.6" stroke-dasharray="6,5" marker-end="url(#arrowWarn)"/>
  <text x="1035" y="223" class="legend">User feedback</text>
</svg>
